<svg width="200" height="200" viewBox="0 0 200 200" fill="none" xmlns="http://www.w3.org/2000/svg">
<path d="M56.7643 70.395C60.197 72.3391 63.0727 74.6757 65.3916 77.4046" stroke="#50338C" stroke-width="1.51889"/>
<path d="M65.3917 77.4046L69.3788 84.6345C69.5474 84.9383 69.8024 85.1855 70.1118 85.3449C70.4212 85.5043 70.7713 85.569 71.118 85.5307C72.2976 85.394 73.4545 85.2193 74.5886 85.0067C75.6113 84.8092 76.6594 84.7029 77.7327 84.6877C81.7578 84.6194 85.8436 84.3611 89.8687 84.7333C91.342 84.875 92.7773 85.0143 94.1747 85.151C95.8404 85.318 96.3974 84.1738 95.8455 81.7183" stroke="#39206E" stroke-width="1.51889"/>
<path d="M95.8456 81.7183L95.8911 64.4865" stroke="#50338C" stroke-width="1.51889"/>
<path d="M95.8911 64.4864L95.7544 60.4385C95.7442 60.1752 95.6126 60.0107 95.3594 59.9449C86.8764 57.6817 77.6644 55.9805 68.7485 56.3755C64.5513 56.5577 61.2983 58.1095 58.9896 61.0309C57.1416 63.37 55.4658 65.9141 53.962 68.6633C53.9343 68.7135 53.9173 68.769 53.9122 68.8263C53.9072 68.8836 53.9142 68.9415 53.9327 68.9964C53.9512 69.0512 53.9809 69.1019 54.0199 69.1452C54.0589 69.1885 54.1065 69.2235 54.1595 69.2481L56.7644 70.3948" stroke="#746498" stroke-width="1.51889"/>
<path d="M95.8909 64.4865C91.5064 62.3448 86.9902 61.0386 82.3424 60.5677C73.2139 59.6488 60.4704 59.6943 56.7643 70.3949" stroke="#9562F2" stroke-width="1.51889"/>
<path d="M95.8455 81.7183C95.6379 82.179 95.1392 82.4018 94.3494 82.3866C86.0968 82.2296 78.4365 81.579 71.3686 80.4348C70.0826 80.2222 68.0903 79.2121 65.3917 77.4046" stroke="#5B1EC8" stroke-width="1.51889"/>
<path d="M103.812 64.6839L104.131 82.4018" stroke="#50338C" stroke-width="1.51889"/>
<path d="M104.131 82.4017C103.721 83.7232 103.906 84.594 104.685 85.0142C105.085 85.2269 105.797 85.2674 106.82 85.1358C112.774 84.3662 118.576 84.2396 124.226 84.756C125.629 84.8877 127.011 85.1636 128.373 85.5838C129.137 85.8167 129.724 85.5914 130.135 84.9079L134.858 77.0173" stroke="#39206E" stroke-width="1.51889"/>
<path d="M134.858 77.0172C137.066 74.2984 139.772 72.0758 142.977 70.3493" stroke="#50338C" stroke-width="1.51889"/>
<path d="M142.977 70.3493L145.498 69.1798C145.766 69.0532 145.832 68.8608 145.695 68.6026C143.083 63.6966 139.354 57.5223 133.294 56.6717C130.124 56.2262 126.957 56.1477 123.793 56.4363C117.323 57.0236 110.839 58.1982 104.344 59.9601C104.09 60.031 103.959 60.1981 103.949 60.4613L103.812 64.6839" stroke="#746498" stroke-width="1.51889"/>
<path d="M142.977 70.3493C141.802 66.8862 139.579 64.3496 136.309 62.7396C133.691 61.4536 131.413 60.6993 129.474 60.4765C124.122 59.874 118.3 60.1929 112.006 61.4334C109.546 61.9194 106.814 63.0029 103.812 64.6838" stroke="#9562F2" stroke-width="1.51889"/>
<path d="M134.858 77.0173C133.755 77.559 132.727 78.159 131.775 78.8172C130.127 79.9411 128.836 80.336 127.006 80.6322C119.442 81.8473 111.817 82.4372 104.131 82.4017" stroke="#5B1EC8" stroke-width="1.51889"/>
<path d="M38.0669 80.0702C40.1073 80.7031 42.016 81.3562 43.7931 82.0296C51.8281 85.0522 57.3872 90.3151 60.4706 97.8184C61.1034 99.3475 60.8326 99.5297 59.658 98.3652C56.5088 95.2363 53.2735 92.6112 49.9522 90.4898C40.5275 84.4674 28.1257 84.6345 21.3515 94.5832C18.139 99.2994 15.1468 104.676 13.7418 110.121" stroke="#50338C" stroke-width="1.51889"/>
<path d="M13.7417 110.122C11.3216 117.038 11.1369 123.916 13.1874 130.756C13.924 133.209 15.5113 135.373 16.9162 137.507C17.7871 138.834 19.0401 139.973 20.6755 140.925C25.136 143.532 29.7205 144.325 34.4291 143.302C36.2593 142.907 38.1428 142.482 39.8591 141.684C45.5448 139.041 50.5471 135.596 54.8658 131.348C60.0351 126.27 64.2145 121.204 67.4042 116.152C69.0598 113.529 70.1863 110.896 70.7838 108.253C70.8098 108.138 70.8754 108.035 70.9694 107.962C71.0634 107.888 71.1801 107.849 71.3002 107.851L94.4329 108.117C94.74 108.121 95.0366 108.006 95.2593 107.796C95.4821 107.586 95.6134 107.298 95.6252 106.993L95.7999 102.633" stroke="#39206E" stroke-width="1.51889"/>
<path d="M95.7998 102.633L95.815 95.9426" stroke="#50338C" stroke-width="1.51889"/>
<path d="M95.8152 95.9426L95.838 93.6795C95.838 93.4061 95.7038 93.2466 95.4355 93.201C87.7094 91.9201 79.9934 91.9656 72.2876 93.3377C72.0293 93.3833 71.8319 93.5174 71.6952 93.7402C71.3863 94.2263 71.3458 94.8288 71.5737 95.5477" stroke="#746498" stroke-width="1.51889"/>
<path d="M71.5735 95.5478C71.6747 96.0794 71.5001 96.6186 71.0494 97.1654C70.9988 97.2262 70.9431 97.2312 70.8824 97.1806L70.7305 97.0515" stroke="#50338C" stroke-width="1.51889"/>
<path d="M70.7305 97.0515C68.2851 90.7734 64.541 85.6091 59.4983 81.5588C51.9874 75.5212 44.4157 74.3137 36.2137 79.5842C35.9201 79.7716 35.9327 79.9336 36.2517 80.0703C36.8035 80.3133 37.4086 80.3133 38.0668 80.0703" stroke="#746498" stroke-width="1.51889"/>
<path d="M70.7307 97.0515C70.6851 97.1224 70.6294 97.1932 70.5636 97.2641C70.4319 97.4008 70.313 97.3907 70.2066 97.2337C65.7107 90.662 60.0832 85.4421 53.3242 81.574C48.5245 78.8248 43.4387 78.3235 38.0669 80.0702" stroke="#9562F2" stroke-width="1.51889"/>
<path d="M71.5736 95.5477C79.644 94.6972 87.7245 94.8288 95.8151 95.9426" stroke="#9562F2" stroke-width="1.51889"/>
<path d="M95.8 102.633C88.9245 104.076 81.9831 104.646 74.976 104.342C72.2875 104.221 69.7915 103.562 67.4878 102.368C67.3578 102.301 67.2066 102.288 67.0663 102.332C66.9259 102.376 66.8075 102.473 66.736 102.603C62.1692 111.078 57.0227 118.541 51.2964 124.991C49.2054 127.351 46.8208 129.553 44.1425 131.599C38.4011 135.973 32.4394 137.234 26.2575 135.381C14.3874 131.826 14.4785 120.139 13.7418 110.121" stroke="#5B1EC8" stroke-width="1.51889"/>
<path d="M129.003 96.9983C129.048 97.0489 129.021 97.102 128.919 97.1577C128.848 97.1982 128.788 97.1881 128.737 97.1273C128.352 96.697 128.15 96.1502 128.13 95.4869" stroke="#50338C" stroke-width="1.51889"/>
<path d="M128.13 95.4869C128.221 94.854 128.203 94.2971 128.076 93.8162C128.016 93.5731 127.861 93.4314 127.613 93.3909C119.958 91.9884 112.209 91.9226 104.367 93.1934C104.118 93.2339 103.969 93.3757 103.918 93.6187C103.777 94.2769 103.756 95.0313 103.858 95.8818" stroke="#746498" stroke-width="1.51889"/>
<path d="M103.858 95.8818L103.599 102.474" stroke="#50338C" stroke-width="1.51889"/>
<path d="M103.6 102.474C103.493 103.299 103.498 104.266 103.615 105.375C103.736 106.484 103.25 108.063 105.027 108.079C113.148 108.175 121.793 108.023 130.962 107.623C131.336 107.605 131.705 107.713 132.01 107.929C132.316 108.145 132.54 108.457 132.648 108.815C133.377 111.21 134.324 113.458 135.489 115.559C141.238 125.91 151.073 137.667 162.373 141.92C169.185 144.486 178.056 143.56 182.779 137.469C186.875 132.189 188.66 126.075 188.134 119.129C187.865 115.6 187.265 112.792 186.334 110.706" stroke="#39206E" stroke-width="1.51889"/>
<path d="M186.333 110.706C185.868 108.195 184.982 105.648 183.675 103.066C181.427 98.6159 178.724 93.5808 174.714 90.4823C164.917 82.9106 152.72 86.8977 144.131 94.6212C142.516 96.0743 140.888 97.578 139.248 99.1324C138.878 99.4766 138.754 99.4032 138.876 98.9121C141.101 90.0342 151.057 82.6751 159.29 80.898C160.181 80.7057 161.049 80.4424 161.894 80.1082" stroke="#50338C" stroke-width="1.51889"/>
<path d="M161.894 80.1082C162.532 80.2449 163.115 80.2145 163.641 80.017C163.96 79.9006 163.973 79.7538 163.679 79.5766C159.325 76.9185 155.259 75.8299 151.482 76.3109C146.916 76.8982 142.797 78.9462 139.126 82.4549C134.276 87.0976 130.901 91.9454 129.003 96.9983" stroke="#746498" stroke-width="1.51889"/>
<path d="M161.894 80.1082C154.186 77.4501 147.632 80.1766 141.564 84.7712C136.734 88.4317 132.734 92.591 129.565 97.2489C129.443 97.421 129.317 97.4286 129.185 97.2717C129.119 97.2008 129.059 97.1097 129.003 96.9983" stroke="#9562F2" stroke-width="1.51889"/>
<path d="M186.334 110.706C185.999 114.387 185.544 117.959 184.967 121.422C184.511 124.171 183.498 126.804 181.929 129.32C178.488 134.834 171.236 136.793 165.13 135.996C158.728 135.153 152.569 129.609 148.475 124.976C142.744 118.501 137.59 110.99 133.013 102.443C132.891 102.216 132.719 102.168 132.496 102.299C130.694 103.337 128.484 103.947 125.866 104.129C117.983 104.671 110.561 104.119 103.599 102.474" stroke="#5B1EC8" stroke-width="1.51889"/>
<path d="M103.858 95.8819C109.164 95.3654 112.513 95.0819 113.905 95.0313C117.627 94.8946 122.368 95.0465 128.13 95.4869" stroke="#9562F2" stroke-width="1.51889"/>
<path d="M73.2217 115.491C73.1954 115.558 73.1859 115.631 73.194 115.703C73.2021 115.775 73.2275 115.844 73.2681 115.903C73.3087 115.963 73.3631 116.011 73.4265 116.044C73.49 116.076 73.5605 116.092 73.6318 116.091L129.497 116.045C129.866 116.045 130 115.868 129.899 115.514L129.147 112.878C129.026 112.453 128.74 112.245 128.289 112.256C109.804 112.848 92.1395 112.866 75.295 112.309C74.7634 112.288 74.3988 112.526 74.2014 113.023L73.2217 115.491Z" stroke="#50338C" stroke-width="1.51889"/>
<path d="M78.6289 123.146C78.4567 123.662 78.5732 124.017 78.9782 124.209C81.9249 125.622 85.3728 126.984 89.3219 128.295C95.281 130.275 100.959 130.627 106.356 129.351C112.265 127.961 117.847 126.024 123.588 124.323C124.92 123.923 126.358 123.607 127.902 123.374C129.481 123.131 130.972 122.627 132.375 121.863C132.663 121.711 132.714 121.498 132.527 121.225C132.309 120.911 132.081 120.814 131.843 120.936" stroke="#39206E" stroke-width="1.51889"/>
<path d="M131.843 120.936C131.681 120.698 131.469 120.579 131.205 120.579C111.262 120.67 91.3193 120.721 71.3762 120.731C70.5206 120.731 70.2902 121.025 70.6851 121.612C70.7451 121.703 70.8233 121.78 70.9149 121.839C71.0064 121.898 71.1092 121.937 71.2167 121.954L78.6289 123.146" stroke="#50338C" stroke-width="1.51889"/>
<path d="M131.843 120.936C130.957 121.255 130.038 121.501 129.087 121.673C119.761 123.374 110.394 124.824 100.987 126.024C98.3036 126.364 96.3443 126.46 95.1089 126.313C90.8965 125.812 85.4032 124.756 78.6289 123.146" stroke="#5B1EC8" stroke-width="1.51889"/>
<path d="M41.6819 101.919C41.6819 100.622 41.1667 99.3783 40.2494 98.4611C39.3322 97.5439 38.0882 97.0286 36.7911 97.0286C35.494 97.0286 34.25 97.5439 33.3328 98.4611C32.4155 99.3783 31.9003 100.622 31.9003 101.919C31.9003 103.217 32.4155 104.461 33.3328 105.378C34.25 106.295 35.494 106.81 36.7911 106.81C38.0882 106.81 39.3322 106.295 40.2494 105.378C41.1667 104.461 41.6819 103.217 41.6819 101.919Z" stroke="#50338C" stroke-width="1.51889"/>
<path d="M31.513 112.066C31.513 110.769 30.9977 109.525 30.0805 108.607C29.1633 107.69 27.9193 107.175 26.6222 107.175C25.325 107.175 24.081 107.69 23.1638 108.607C22.2466 109.525 21.7313 110.769 21.7313 112.066C21.7313 113.363 22.2466 114.607 23.1638 115.524C24.081 116.441 25.325 116.957 26.6222 116.957C27.9193 116.957 29.1633 116.441 30.0805 115.524C30.9977 114.607 31.513 113.363 31.513 112.066Z" stroke="#50338C" stroke-width="1.51889"/>
<path d="M51.8128 112.058C51.8128 110.761 51.2975 109.517 50.3803 108.6C49.4631 107.683 48.2191 107.167 46.922 107.167C45.6248 107.167 44.3809 107.683 43.4636 108.6C42.5464 109.517 42.0311 110.761 42.0311 112.058C42.0311 113.355 42.5464 114.599 43.4636 115.517C44.3809 116.434 45.6248 116.949 46.922 116.949C48.2191 116.949 49.4631 116.434 50.3803 115.517C51.2975 114.599 51.8128 113.355 51.8128 112.058Z" stroke="#50338C" stroke-width="1.51889"/>
<path d="M41.659 122.235C41.659 120.942 41.1453 119.701 40.231 118.787C39.3166 117.873 38.0765 117.359 36.7834 117.359C35.4903 117.359 34.2501 117.873 33.3358 118.787C32.4214 119.701 31.9077 120.942 31.9077 122.235C31.9077 122.875 32.0338 123.509 32.2789 124.101C32.5239 124.692 32.883 125.23 33.3358 125.682C33.7885 126.135 34.326 126.494 34.9175 126.739C35.5091 126.984 36.1431 127.11 36.7834 127.11C37.4236 127.11 38.0577 126.984 38.6492 126.739C39.2407 126.494 39.7782 126.135 40.231 125.682C40.6837 125.23 41.0429 124.692 41.2879 124.101C41.5329 123.509 41.659 122.875 41.659 122.235Z" stroke="#50338C" stroke-width="1.51889"/>
<path d="M157.368 107.175L149.599 107.167C148.45 107.167 147.875 107.739 147.875 108.884L147.868 115.536C147.868 115.895 148.011 116.239 148.266 116.492C148.521 116.746 148.866 116.888 149.227 116.888L157.74 116.873C157.795 116.873 157.847 116.895 157.885 116.933C157.924 116.971 157.945 117.024 157.945 117.078L157.961 125.439C157.961 125.668 158.006 125.893 158.093 126.104C158.181 126.314 158.309 126.506 158.47 126.667C158.632 126.827 158.824 126.955 159.035 127.041C159.246 127.128 159.472 127.172 159.7 127.171L166.315 127.125C166.67 127.121 167.01 126.977 167.261 126.724C167.511 126.471 167.651 126.13 167.651 125.774L167.636 117.435C167.636 117.288 167.695 117.147 167.801 117.043C167.906 116.939 168.049 116.881 168.198 116.881L176.704 116.858C176.938 116.858 177.163 116.773 177.338 116.619C177.513 116.465 177.625 116.253 177.653 116.022C177.942 113.709 177.985 111.324 177.782 108.868C177.691 107.749 177.086 107.187 175.967 107.182L168.198 107.16C168.048 107.158 167.905 107.098 167.8 106.992C167.695 106.887 167.636 106.745 167.636 106.598V98.631C167.636 98.2262 167.476 97.8379 167.191 97.5517C166.906 97.2654 166.52 97.1046 166.117 97.1046H159.487C158.495 97.1046 157.994 97.6007 157.983 98.5931L157.923 106.62C157.923 106.99 157.738 107.175 157.368 107.175Z" stroke="#50338C" stroke-width="1.51889"/>
<path d="M163.788 101.488C163.809 101.289 163.723 101.088 163.55 100.928C163.376 100.767 163.129 100.661 162.863 100.633C162.731 100.619 162.599 100.624 162.473 100.649C162.347 100.673 162.23 100.716 162.129 100.776C162.029 100.835 161.946 100.91 161.886 100.995C161.826 101.08 161.789 101.175 161.779 101.273C161.758 101.471 161.843 101.673 162.017 101.833C162.19 101.993 162.437 102.099 162.703 102.128C162.835 102.142 162.968 102.137 163.094 102.112C163.22 102.088 163.336 102.044 163.437 101.985C163.538 101.925 163.62 101.851 163.681 101.766C163.741 101.68 163.777 101.586 163.788 101.488Z" stroke="#50338C" stroke-width="1.51889"/>
<path d="M151.43 112.445C151.586 112.633 151.771 112.78 151.984 112.886C152.44 113.119 152.678 112.98 152.698 112.468L152.736 111.382C152.751 111.073 152.607 110.944 152.303 110.995C151.867 111.061 151.549 111.296 151.346 111.701C151.287 111.822 151.264 111.956 151.278 112.088C151.293 112.22 151.346 112.344 151.43 112.445Z" stroke="#50338C" stroke-width="1.51889"/>
<path d="M173.7 112.953C173.884 112.927 174.046 112.809 174.153 112.626C174.259 112.442 174.3 112.208 174.267 111.975C174.25 111.859 174.216 111.748 174.166 111.646C174.116 111.544 174.051 111.454 173.975 111.382C173.9 111.309 173.814 111.255 173.724 111.223C173.634 111.191 173.541 111.181 173.45 111.194C173.266 111.22 173.103 111.338 172.997 111.521C172.891 111.704 172.85 111.938 172.883 112.172C172.9 112.287 172.934 112.399 172.984 112.501C173.034 112.603 173.098 112.692 173.174 112.765C173.25 112.838 173.336 112.891 173.426 112.924C173.516 112.956 173.609 112.966 173.7 112.953Z" stroke="#50338C" stroke-width="1.51889"/>
<path d="M163.444 123.366C163.621 123.093 163.694 122.814 163.664 122.531C163.629 122.232 163.449 122.093 163.125 122.113C162.725 122.144 162.353 122.207 162.008 122.303C161.644 122.404 161.581 122.602 161.819 122.895C162.087 123.225 162.393 123.457 162.737 123.594C162.863 123.644 163.003 123.648 163.131 123.607C163.26 123.565 163.371 123.48 163.444 123.366Z" stroke="#50338C" stroke-width="1.51889"/>
<path d="M95.8909 64.4865L95.8454 81.7183C95.6378 82.179 95.1391 82.4018 94.3493 82.3866C86.0966 82.2296 78.4363 81.5791 71.3684 80.4348C70.0824 80.2222 68.0901 79.2121 65.3916 77.4046C63.0727 74.6757 60.197 72.3391 56.7643 70.3949C60.4704 59.6943 73.2139 59.6488 82.3424 60.5677C86.9902 61.0386 91.5064 62.3448 95.8909 64.4865Z" fill="#7131E6"/>
<path d="M142.977 70.3493C139.772 72.0758 137.066 74.2984 134.858 77.0172C133.754 77.559 132.727 78.1589 131.775 78.8171C130.127 79.9411 128.836 80.336 127.006 80.6322C119.441 81.8473 111.817 82.4371 104.131 82.4017L103.812 64.6838C106.814 63.0029 109.546 61.9194 112.006 61.4334C118.3 60.1929 124.122 59.874 129.474 60.4765C131.413 60.6993 133.691 61.4536 136.309 62.7396C139.579 64.3496 141.802 66.8862 142.977 70.3493Z" fill="#7131E6"/>
<path d="M70.7304 97.0515L70.8823 97.1806C70.9431 97.2312 70.9988 97.2261 71.0494 97.1654C71.5 96.6186 71.6747 96.0794 71.5734 95.5478C79.6438 94.6972 87.7243 94.8288 95.8149 95.9427L95.7997 102.633C88.9242 104.076 81.9829 104.646 74.9757 104.342C72.2873 104.221 69.7912 103.562 67.4876 102.368C67.3576 102.301 67.2064 102.288 67.066 102.332C66.9257 102.376 66.8072 102.473 66.7358 102.603C62.1689 111.078 57.0224 118.541 51.2962 124.991C49.2052 127.351 46.8205 129.553 44.1422 131.599C38.4008 135.973 32.4391 137.234 26.2573 135.381C14.3871 131.827 14.4782 120.139 13.7416 110.122C15.1466 104.676 18.1388 99.2994 21.3512 94.5833C28.1255 84.6345 40.5273 84.4674 49.952 90.4898C53.2733 92.6112 56.5085 95.2364 59.6577 98.3653C60.8323 99.5298 61.1032 99.3475 60.4703 97.8185C57.387 90.3152 51.8278 85.0522 43.7929 82.0296C42.0158 81.3563 40.107 80.7031 38.0667 80.0702C43.4385 78.3235 48.5242 78.8248 53.3239 81.574C60.083 85.4421 65.7105 90.662 70.2064 97.2337C70.3127 97.3907 70.4317 97.4008 70.5633 97.2641C70.6292 97.1932 70.6849 97.1224 70.7304 97.0515ZM41.6816 101.92C41.6816 100.622 41.1663 99.3784 40.2491 98.4612C39.3319 97.544 38.0879 97.0287 36.7908 97.0287C35.4936 97.0287 34.2496 97.544 33.3324 98.4612C32.4152 99.3784 31.8999 100.622 31.8999 101.92C31.8999 103.217 32.4152 104.461 33.3324 105.378C34.2496 106.295 35.4936 106.81 36.7908 106.81C38.0879 106.81 39.3319 106.295 40.2491 105.378C41.1663 104.461 41.6816 103.217 41.6816 101.92ZM31.5126 112.066C31.5126 110.769 30.9974 109.525 30.0801 108.607C29.1629 107.69 27.9189 107.175 26.6218 107.175C25.3247 107.175 24.0807 107.69 23.1635 108.607C22.2462 109.525 21.731 110.769 21.731 112.066C21.731 113.363 22.2462 114.607 23.1635 115.524C24.0807 116.441 25.3247 116.957 26.6218 116.957C27.9189 116.957 29.1629 116.441 30.0801 115.524C30.9974 114.607 31.5126 113.363 31.5126 112.066ZM51.8126 112.058C51.8126 110.761 51.2973 109.517 50.3801 108.6C49.4629 107.683 48.2189 107.167 46.9218 107.167C45.6247 107.167 44.3807 107.683 43.4635 108.6C42.5463 109.517 42.0309 110.761 42.0309 112.058C42.0309 113.355 42.5463 114.599 43.4635 115.516C44.3807 116.434 45.6247 116.949 46.9218 116.949C48.2189 116.949 49.4629 116.434 50.3801 115.516C51.2973 114.599 51.8126 113.355 51.8126 112.058ZM41.6588 122.235C41.6588 120.942 41.1451 119.701 40.2308 118.787C39.3164 117.873 38.0763 117.359 36.7832 117.359C35.4901 117.359 34.2499 117.873 33.3356 118.787C32.4212 119.701 31.9075 120.942 31.9075 122.235C31.9075 122.875 32.0337 123.509 32.2787 124.101C32.5237 124.692 32.8828 125.23 33.3356 125.682C33.7883 126.135 34.3258 126.494 34.9173 126.739C35.5089 126.984 36.1429 127.11 36.7832 127.11C37.4235 127.11 38.0575 126.984 38.649 126.739C39.2406 126.494 39.778 126.135 40.2308 125.682C40.6835 125.23 41.0427 124.692 41.2877 124.101C41.5327 123.509 41.6588 122.875 41.6588 122.235Z" fill="#7131E6"/>
<path d="M161.895 80.1082C161.049 80.4424 160.181 80.7056 159.29 80.898C151.057 82.6751 141.101 90.0342 138.876 98.9121C138.754 99.4032 138.878 99.4766 139.248 99.1323C140.888 97.578 142.516 96.0743 144.131 94.6212C152.72 86.8977 164.917 82.9106 174.714 90.4822C178.724 93.5808 181.428 98.6159 183.675 103.066C184.982 105.648 185.868 108.195 186.334 110.706C185.999 114.387 185.544 117.959 184.967 121.422C184.511 124.171 183.498 126.804 181.929 129.32C178.488 134.834 171.236 136.793 165.13 135.996C158.728 135.153 152.569 129.609 148.475 124.976C142.744 118.501 137.59 110.99 133.013 102.444C132.891 102.216 132.719 102.168 132.496 102.299C130.694 103.337 128.484 103.947 125.866 104.129C117.983 104.671 110.561 104.119 103.599 102.474L103.858 95.8819C109.164 95.3655 112.513 95.082 113.905 95.0313C117.626 94.8946 122.368 95.0465 128.13 95.487C128.15 96.1502 128.352 96.697 128.737 97.1274C128.788 97.1881 128.849 97.1983 128.919 97.1578C129.021 97.1021 129.049 97.0489 129.003 96.9983C129.059 97.1097 129.119 97.2008 129.185 97.2717C129.317 97.4286 129.443 97.421 129.565 97.2489C132.734 92.591 136.734 88.4317 141.564 84.7712C147.632 80.1766 154.186 77.4501 161.895 80.1082ZM157.368 107.175L149.599 107.167C148.45 107.167 147.875 107.739 147.875 108.884L147.868 115.536C147.868 115.895 148.011 116.239 148.266 116.492C148.521 116.746 148.866 116.888 149.227 116.888L157.74 116.873C157.795 116.873 157.847 116.895 157.885 116.933C157.924 116.972 157.945 117.024 157.945 117.078L157.961 125.44C157.961 125.668 158.006 125.893 158.093 126.104C158.181 126.315 158.309 126.506 158.47 126.667C158.632 126.828 158.824 126.955 159.035 127.041C159.246 127.128 159.472 127.172 159.7 127.171L166.315 127.126C166.67 127.122 167.01 126.977 167.261 126.724C167.511 126.471 167.651 126.13 167.651 125.774L167.636 117.435C167.636 117.288 167.695 117.147 167.801 117.043C167.906 116.939 168.049 116.881 168.198 116.881L176.704 116.858C176.938 116.858 177.163 116.773 177.338 116.619C177.513 116.465 177.625 116.253 177.653 116.022C177.942 113.709 177.985 111.324 177.782 108.868C177.691 107.75 177.086 107.188 175.967 107.182L168.198 107.16C168.048 107.158 167.905 107.098 167.8 106.992C167.695 106.887 167.636 106.745 167.636 106.598V98.6311C167.636 98.2263 167.476 97.838 167.191 97.5517C166.906 97.2654 166.52 97.1046 166.117 97.1046H159.487C158.495 97.1046 157.994 97.6008 157.983 98.5931L157.923 106.62C157.923 106.99 157.738 107.175 157.368 107.175Z" fill="#7131E6"/>
<path d="M163.788 101.488C163.777 101.586 163.741 101.68 163.681 101.766C163.62 101.851 163.538 101.925 163.437 101.985C163.336 102.044 163.22 102.088 163.094 102.112C162.968 102.137 162.835 102.142 162.703 102.128C162.437 102.099 162.19 101.993 162.017 101.833C161.843 101.673 161.758 101.471 161.779 101.273C161.789 101.175 161.826 101.08 161.886 100.995C161.946 100.91 162.029 100.835 162.129 100.776C162.23 100.716 162.347 100.673 162.473 100.649C162.599 100.624 162.731 100.619 162.863 100.633C163.129 100.661 163.376 100.767 163.55 100.928C163.723 101.088 163.809 101.289 163.788 101.488Z" fill="#7131E6"/>
<path d="M151.429 112.445C151.345 112.344 151.293 112.22 151.278 112.088C151.263 111.956 151.287 111.822 151.346 111.701C151.548 111.296 151.867 111.061 152.303 110.995C152.606 110.944 152.751 111.073 152.736 111.382L152.698 112.468C152.677 112.98 152.439 113.119 151.984 112.886C151.771 112.78 151.586 112.633 151.429 112.445Z" fill="#7131E6"/>
<path d="M173.7 112.953C173.609 112.966 173.516 112.956 173.426 112.924C173.335 112.891 173.25 112.838 173.174 112.765C173.098 112.692 173.033 112.603 172.984 112.501C172.934 112.399 172.899 112.287 172.883 112.172C172.85 111.938 172.891 111.704 172.997 111.521C173.103 111.338 173.266 111.22 173.449 111.194C173.54 111.181 173.633 111.191 173.724 111.223C173.814 111.255 173.899 111.309 173.975 111.382C174.051 111.454 174.116 111.544 174.166 111.646C174.216 111.748 174.25 111.859 174.266 111.975C174.3 112.208 174.259 112.442 174.152 112.626C174.046 112.809 173.883 112.927 173.7 112.953Z" fill="#7131E6"/>
<path d="M73.2217 115.491L74.2014 113.023C74.3988 112.526 74.7634 112.288 75.295 112.309C92.1395 112.866 109.804 112.848 128.289 112.256C128.74 112.245 129.026 112.453 129.147 112.878L129.899 115.514C130 115.868 129.866 116.045 129.497 116.045L73.6318 116.091C73.5605 116.092 73.49 116.076 73.4265 116.044C73.3631 116.011 73.3087 115.963 73.2681 115.903C73.2275 115.844 73.2021 115.775 73.194 115.703C73.1859 115.631 73.1954 115.558 73.2217 115.491Z" fill="#7131E6"/>
<path d="M131.843 120.936C130.957 121.255 130.038 121.501 129.087 121.673C119.761 123.374 110.394 124.824 100.987 126.024C98.3036 126.364 96.3443 126.46 95.1089 126.313C90.8965 125.812 85.4032 124.756 78.6289 123.146L71.2167 121.954C71.1092 121.937 71.0064 121.898 70.9149 121.839C70.8233 121.78 70.7451 121.703 70.6851 121.612C70.2902 121.025 70.5206 120.731 71.3762 120.731C91.3193 120.721 111.262 120.67 131.205 120.579C131.469 120.579 131.681 120.698 131.843 120.936Z" fill="#7131E6"/>
<path d="M163.444 123.366C163.371 123.48 163.26 123.565 163.131 123.607C163.003 123.648 162.863 123.644 162.737 123.594C162.393 123.457 162.087 123.225 161.819 122.895C161.581 122.602 161.644 122.404 162.008 122.303C162.353 122.207 162.725 122.144 163.125 122.113C163.449 122.093 163.629 122.232 163.664 122.531C163.694 122.814 163.621 123.093 163.444 123.366Z" fill="#7131E6"/>
<path d="M134.858 77.0173L130.135 84.9079C129.724 85.5914 129.137 85.8167 128.373 85.5838C127.011 85.1636 125.629 84.8877 124.226 84.756C118.576 84.2396 112.774 84.3662 106.82 85.1358C105.797 85.2674 105.085 85.2269 104.685 85.0142C103.906 84.594 103.721 83.7232 104.131 82.4017C111.817 82.4372 119.442 81.8473 127.006 80.6322C128.836 80.336 130.127 79.9411 131.775 78.8172C132.727 78.159 133.755 77.559 134.858 77.0173Z" fill="#440BAA"/>
<path d="M65.3917 77.4046C68.0903 79.2121 70.0826 80.2222 71.3686 80.4348C78.4365 81.579 86.0968 82.2296 94.3494 82.3866C95.1392 82.4018 95.6379 82.179 95.8455 81.7183C96.3974 84.1738 95.8404 85.318 94.1747 85.151C92.7773 85.0143 91.342 84.875 89.8687 84.7333C85.8436 84.3611 81.7578 84.6194 77.7327 84.6877C76.6594 84.7029 75.6113 84.8092 74.5886 85.0067C73.4545 85.2193 72.2976 85.394 71.118 85.5307C70.7713 85.569 70.4212 85.5043 70.1118 85.3449C69.8024 85.1855 69.5474 84.9383 69.3788 84.6345L65.3917 77.4046Z" fill="#440BAA"/>
<path d="M186.334 110.706C187.265 112.792 187.865 115.6 188.134 119.129C188.66 126.075 186.875 132.188 182.779 137.469C178.056 143.56 169.185 144.486 162.373 141.919C151.073 137.667 141.238 125.91 135.489 115.559C134.324 113.458 133.377 111.21 132.648 108.815C132.54 108.457 132.316 108.145 132.01 107.929C131.705 107.713 131.336 107.605 130.962 107.623C121.793 108.023 113.148 108.175 105.027 108.079C103.25 108.063 103.736 106.484 103.615 105.375C103.498 104.266 103.493 103.299 103.6 102.474C110.561 104.119 117.983 104.671 125.867 104.129C128.484 103.947 130.694 103.337 132.496 102.299C132.719 102.168 132.891 102.216 133.013 102.443C137.59 110.99 142.744 118.501 148.475 124.976C152.569 129.609 158.728 135.153 165.13 135.996C171.236 136.793 178.489 134.834 181.929 129.32C183.498 126.804 184.511 124.171 184.967 121.422C185.544 117.959 185.999 114.387 186.334 110.706Z" fill="#440BAA"/>
<path d="M95.7999 102.633L95.6252 106.993C95.6134 107.297 95.4821 107.586 95.2593 107.796C95.0366 108.006 94.74 108.121 94.4329 108.117L71.3002 107.851C71.1801 107.849 71.0634 107.888 70.9694 107.962C70.8754 108.035 70.8098 108.138 70.7838 108.253C70.1863 110.896 69.0598 113.529 67.4042 116.151C64.2145 121.204 60.0351 126.27 54.8658 131.348C50.5471 135.596 45.5448 139.041 39.8591 141.684C38.1428 142.481 36.2593 142.907 34.4291 143.302C29.7205 144.324 25.136 143.532 20.6755 140.925C19.0401 139.973 17.7871 138.834 16.9162 137.507C15.5113 135.373 13.924 133.209 13.1874 130.756C11.1369 123.916 11.3216 117.038 13.7417 110.121C14.4784 120.139 14.3873 131.826 26.2574 135.381C32.4393 137.234 38.401 135.973 44.1424 131.599C46.8207 129.553 49.2054 127.351 51.2964 124.991C57.0226 118.541 62.1691 111.078 66.7359 102.603C66.8074 102.473 66.9258 102.376 67.0662 102.332C67.2065 102.288 67.3577 102.301 67.4878 102.368C69.7914 103.562 72.2874 104.221 74.9759 104.342C81.983 104.646 88.9244 104.076 95.7999 102.633Z" fill="#440BAA"/>
<path d="M131.843 120.936C132.081 120.814 132.309 120.911 132.527 121.225C132.714 121.498 132.663 121.711 132.375 121.863C130.972 122.627 129.481 123.131 127.902 123.374C126.358 123.607 124.92 123.923 123.588 124.323C117.847 126.024 112.265 127.961 106.356 129.351C100.959 130.627 95.281 130.275 89.3219 128.295C85.3728 126.984 81.9249 125.622 78.9782 124.209C78.5732 124.017 78.4567 123.662 78.6289 123.146C85.4031 124.756 90.8965 125.812 95.1089 126.313C96.3442 126.46 98.3036 126.364 100.987 126.024C110.394 124.824 119.76 123.374 129.086 121.673C130.038 121.501 130.957 121.255 131.843 120.936Z" fill="#440BAA"/>
<path d="M95.8911 64.4864C91.5065 62.3447 86.9904 61.0385 82.3425 60.5676C73.214 59.6487 60.4705 59.6943 56.7644 70.3948L54.1595 69.2481C54.1065 69.2235 54.0589 69.1885 54.0199 69.1452C53.9809 69.1019 53.9512 69.0512 53.9327 68.9964C53.9142 68.9415 53.9072 68.8836 53.9122 68.8263C53.9173 68.769 53.9343 68.7135 53.962 68.6633C55.4658 65.9141 57.1416 63.37 58.9896 61.0309C61.2983 58.1095 64.5513 56.5577 68.7485 56.3755C77.6644 55.9805 86.8764 57.6817 95.3594 59.9449C95.6126 60.0107 95.7442 60.1752 95.7544 60.4385L95.8911 64.4864Z" fill="#B993FE"/>
<path d="M142.977 70.3493C141.802 66.8863 139.579 64.3497 136.309 62.7397C133.691 61.4537 131.413 60.6993 129.474 60.4765C124.122 59.874 118.3 60.193 112.006 61.4334C109.546 61.9195 106.814 63.0029 103.812 64.6839L103.949 60.4613C103.959 60.1981 104.09 60.031 104.344 59.9601C110.839 58.1982 117.323 57.0236 123.793 56.4363C126.957 56.1477 130.124 56.2262 133.294 56.6717C139.354 57.5223 143.083 63.6966 145.695 68.6026C145.832 68.8608 145.766 69.0532 145.498 69.1798L142.977 70.3493Z" fill="#B993FE"/>
<path d="M70.7305 97.0515C70.685 97.1224 70.6293 97.1932 70.5634 97.2641C70.4318 97.4008 70.3128 97.3907 70.2065 97.2337C65.7106 90.662 60.0831 85.4421 53.324 81.574C48.5243 78.8248 43.4386 78.3235 38.0668 80.0703C37.4086 80.3133 36.8035 80.3133 36.2517 80.0703C35.9327 79.9336 35.9201 79.7716 36.2137 79.5842C44.4157 74.3137 51.9874 75.5212 59.4983 81.5588C64.541 85.6091 68.2851 90.7734 70.7305 97.0515Z" fill="#B993FE"/>
<path d="M161.894 80.1082C154.186 77.4501 147.632 80.1765 141.564 84.7712C136.734 88.4317 132.734 92.5909 129.565 97.2489C129.443 97.421 129.317 97.4286 129.185 97.2716C129.119 97.2008 129.059 97.1096 129.003 96.9983C130.901 91.9454 134.276 87.0976 139.126 82.4549C142.797 78.9462 146.916 76.8982 151.482 76.3109C155.259 75.8299 159.325 76.9185 163.679 79.5766C163.973 79.7538 163.96 79.9006 163.641 80.017C163.115 80.2145 162.532 80.2449 161.894 80.1082Z" fill="#B993FE"/>
<path d="M95.8149 95.9426C87.7243 94.8288 79.6438 94.6971 71.5734 95.5477C71.3456 94.8288 71.3861 94.2263 71.6949 93.7402C71.8316 93.5174 72.0291 93.3833 72.2873 93.3377C79.9932 91.9656 87.7091 91.9201 95.4352 93.201C95.7035 93.2466 95.8377 93.4061 95.8377 93.6795L95.8149 95.9426Z" fill="#B993FE"/>
<path d="M128.13 95.4869C122.368 95.0464 117.626 94.8946 113.905 95.0313C112.513 95.0819 109.164 95.3654 103.858 95.8818C103.756 95.0313 103.777 94.2769 103.918 93.6187C103.969 93.3757 104.118 93.2339 104.367 93.1934C112.209 91.9226 119.958 91.9884 127.613 93.3909C127.861 93.4314 128.016 93.5731 128.076 93.8162C128.203 94.2971 128.221 94.854 128.13 95.4869Z" fill="#B993FE"/>
</svg>
